<svg xmlns="http://www.w3.org/2000/svg" width="63.027" height="80.942" viewBox="0 0 63.027 80.942">
  <g id="Group_299" data-name="Group 299" transform="translate(-619.169 -366.543)">
    <path id="security" d="M681.393,382.936l-30.417-16.208a1.49,1.49,0,0,0-1.439,0l-29.581,16.218a1.491,1.491,0,0,0-.787,1.324v21.174a43.837,43.837,0,0,0,26.278,40.125l4.1,1.792a1.514,1.514,0,0,0,1.208,0l4.627-2A43.757,43.757,0,0,0,682.2,405.028V384.269A1.493,1.493,0,0,0,681.393,382.936ZM671.945,397.1l-24.582,20.525a1.937,1.937,0,0,1-2.779-.253l0,0L634.03,404.7a2.1,2.1,0,0,1,.2-2.911,1.974,1.974,0,0,1,2.835.211l9.286,11.186,23.064-19.29a1.964,1.964,0,0,1,2.809.3,2.089,2.089,0,0,1-.291,2.885h0Z" transform="translate(0 0)" fill="#2f8d05"/>
  </g>
</svg>
