<svg xmlns="http://www.w3.org/2000/svg" width="63.995" height="82.186" viewBox="0 0 63.995 82.186">
  <g id="Group_299" data-name="Group 299" transform="translate(34)">
    <path id="security" d="M682.349,383.187l-30.885-16.456a1.512,1.512,0,0,0-1.461,0L619.968,383.2a1.514,1.514,0,0,0-.8,1.344v21.5a44.511,44.511,0,0,0,26.681,40.741l4.167,1.819a1.536,1.536,0,0,0,1.227,0l4.7-2.026a44.428,44.428,0,0,0,27.223-40.955V384.542A1.515,1.515,0,0,0,682.349,383.187Zm-9.593,14.384L647.8,418.412a1.967,1.967,0,0,1-2.822-.257l0,0-10.712-12.866a2.133,2.133,0,0,1,.208-2.956,2,2,0,0,1,2.878.214l9.429,11.358,23.418-19.586a1.994,1.994,0,0,1,2.852.3,2.121,2.121,0,0,1-.295,2.929h0Z" transform="translate(-653.169 -366.543)" fill="#cbccca"/>
  </g>
</svg>
